<svg aria-hidden="true" style="position: absolute; width: 0; height: 0; overflow: hidden;" version="1.1" xmlns="http://www.w3.org/2000/svg" xmlns:xlink="http://www.w3.org/1999/xlink">
<defs>
<symbol id="icon-search" viewBox="0 0 32 32">
<path d="M31.008 27.231l-7.58-6.447c-0.784-0.705-1.622-1.029-2.299-0.998 1.789-2.096 2.87-4.815 2.87-7.787 0-6.627-5.373-12-12-12s-12 5.373-12 12 5.373 12 12 12c2.972 0 5.691-1.081 7.787-2.87-0.031 0.677 0.293 1.515 0.998 2.299l6.447 7.58c1.104 1.226 2.907 1.33 4.007 0.23s0.997-2.903-0.23-4.007zM12 20c-4.418 0-8-3.582-8-8s3.582-8 8-8 8 3.582 8 8-3.582 8-8 8z"></path>
</symbol>
<symbol id="icon-rocket" viewBox="0 0 32 32">
<path fill="#ff5249" style="fill: var(--color1, #ff5249)" d="M31.359 0.625c0 0-0.121 3.364-1.519 7.32l-5.801-5.801c3.956-1.398 7.32-1.519 7.32-1.519z"></path>
<path fill="#fff" style="fill: var(--color2, #fff)" d="M24.039 2.144l5.801 5.801c-0.909 2.574-2.359 5.397-4.668 7.706-2.128 2.128-4.687 3.831-7.363 5.011l-6.488-6.488c0.79-1.791 1.893-3.701 3.349-5.511 0.51-0.633 1.063-1.254 1.662-1.853 2.309-2.309 5.133-3.759 7.706-4.668z"></path>
<path fill="#7bd8e8" style="fill: var(--color3, #7bd8e8)" d="M24.288 7.696c0.976 0.976 0.976 2.559 0 3.536s-2.559 0.976-3.536 0c-0.976-0.977-0.976-2.559 0-3.536s2.559-0.976 3.536 0z"></path>
<path fill="#ff5249" style="fill: var(--color1, #ff5249)" d="M23.404 17.419c3.221 4.832-2.809 7.955-6.187 7.955 1.767-1.767 1.251-4.052 1.251-4.052l-0.659-0.659c1.791-0.79 3.701-1.892 5.511-3.349l0.084 0.106z"></path>
<path fill="#ff5249" style="fill: var(--color1, #ff5249)" d="M10.596 18.753l-0.101-0.101c-0.299-0.299-0.446-0.733-0.341-1.143 0.261-1.015 0.646-2.148 1.168-3.333l6.488 6.488c-1.186 0.523-2.318 0.907-3.333 1.168-0.41 0.105-0.844-0.042-1.143-0.341l-2.737-2.738z"></path>
<path fill="#ff5249" style="fill: var(--color1, #ff5249)" d="M14.566 8.58l0.106 0.084c-1.457 1.809-2.559 3.72-3.349 5.511l-0.659-0.659c0 0-2.284-0.516-4.052 1.251 0-3.378 3.123-9.408 7.955-6.187z"></path>
<path fill="#ffdd78" style="fill: var(--color4, #ffdd78)" d="M10.596 18.753l2.636 2.636c-0.189 0.749-0.639 1.538-1.318 2.218-1.464 1.464-5.303 1.767-5.303 1.767s0.303-3.839 1.768-5.303c0.679-0.679 1.468-1.129 2.217-1.318z"></path>
<path fill="#000" style="fill: var(--color5, #000)" d="M16.791 16.093c0.244-0.244 0.244-0.64 0-0.884s-0.64-0.244-0.884 0c-0.244 0.244-0.244 0.639 0 0.884s0.64 0.244 0.884 0z"></path>
<path fill="#000" style="fill: var(--color5, #000)" d="M24.746 11.674c1.221-1.221 1.221-3.198 0-4.42s-3.198-1.221-4.42 0c-1.218 1.218-1.218 3.201 0 4.42 1.218 1.218 3.201 1.218 4.419-0zM21.21 8.138c0.733-0.733 1.919-0.733 2.652 0s0.733 1.919 0 2.652c-0.731 0.731-1.92 0.731-2.652 0s-0.731-1.921-0-2.652z"></path>
<path fill="#000" style="fill: var(--color5, #000)" d="M6.387 15.344c0.077 0.032 0.159 0.048 0.239 0.048 0.163 0 0.322-0.064 0.442-0.183 1.255-1.255 2.803-1.177 3.309-1.11l0.219 0.219c-0.431 1.025-0.778 2.044-1.032 3.036-0.092 0.359-0.061 0.738 0.076 1.086-0.602 0.277-1.182 0.684-1.688 1.19-1.609 1.609-1.936 5.53-1.949 5.696-0.014 0.182 0.052 0.362 0.181 0.491 0.118 0.118 0.277 0.183 0.442 0.183 0.016 0 0.033-0.001 0.049-0.002 0.166-0.013 4.087-0.34 5.696-1.949 0.505-0.505 0.912-1.086 1.19-1.687 0.368 0.145 0.746 0.162 1.086 0.075 0.991-0.254 2.010-0.601 3.035-1.032l0.219 0.219c0.066 0.506 0.145 2.054-1.11 3.309-0.179 0.179-0.232 0.448-0.135 0.681s0.325 0.386 0.577 0.386c2.474 0 5.932-1.473 7.206-3.853 0.553-1.034 0.93-2.669-0.271-4.709 0.509-0.43 1-0.88 1.462-1.343 2.064-2.064 3.684-4.735 4.816-7.94 1.414-4 1.549-7.365 1.554-7.506 0.006-0.173-0.060-0.342-0.183-0.464s-0.29-0.189-0.464-0.183c-0.141 0.005-3.506 0.14-7.506 1.554-3.205 1.132-5.876 2.752-7.94 4.816-0.462 0.462-0.912 0.953-1.343 1.462-2.040-1.201-3.676-0.824-4.709-0.271-2.38 1.274-3.853 4.732-3.853 7.206 0 0.253 0.152 0.481 0.386 0.577zM11.487 23.164c-0.859 0.859-2.875 1.313-4.149 1.498 0.185-1.274 0.638-3.29 1.498-4.149 0.481-0.481 1.039-0.846 1.6-1.052l2.103 2.103c-0.206 0.561-0.57 1.119-1.052 1.6zM14.337 21.225c-0.181 0.046-0.39-0.022-0.546-0.177-3.034-3.034 0.861 0.861-2.838-2.838-0.156-0.156-0.224-0.366-0.178-0.546 0.2-0.78 0.462-1.579 0.78-2.387l5.168 5.168c-0.808 0.318-1.607 0.58-2.387 0.78zM23.337 21.556c-0.819 1.53-2.881 2.658-4.759 3.046 0.599-1.127 0.731-2.562 0.512-3.433-0.051-0.202-0.183-0.304-0.19-0.316 1.515-0.734 2.949-1.614 4.28-2.626 0.65 1.188 0.704 2.306 0.157 3.328zM29.582 6.787l-4.369-4.369c2.38-0.739 4.451-1.016 5.484-1.116-0.1 1.034-0.376 3.104-1.116 5.484zM16.791 7.254c1.852-1.852 4.241-3.325 7.104-4.386l5.237 5.237c-1.061 2.863-2.534 5.253-4.386 7.104-0.563 0.563-1.17 1.107-1.802 1.617-1.521 1.225-3.196 2.263-4.982 3.089l-5.876-5.876c0.826-1.787 1.864-3.461 3.088-4.982 0.51-0.633 1.054-1.24 1.617-1.803zM10.444 8.663c1.022-0.547 2.14-0.493 3.328 0.157-1.012 1.331-1.892 2.766-2.626 4.28-0.009-0.006-0.122-0.147-0.331-0.194-0.086-0.019-1.74-0.375-3.417 0.517 0.388-1.879 1.516-3.941 3.046-4.76z"></path>
<path fill="#000" style="fill: var(--color5, #000)" d="M13.256 28.468l1.768-1.768c0.244-0.244 0.244-0.64-0-0.884s-0.64-0.244-0.884 0l-1.768 1.768c-0.244 0.244-0.244 0.64 0 0.884s0.64 0.244 0.884-0z"></path>
<path fill="#000" style="fill: var(--color5, #000)" d="M4.416 19.628l1.768-1.767c0.244-0.244 0.244-0.64 0-0.884s-0.64-0.244-0.884-0l-1.768 1.767c-0.244 0.244-0.244 0.64-0 0.884s0.64 0.244 0.884 0z"></path>
<path fill="#000" style="fill: var(--color5, #000)" d="M9.72 26.7l-4.234 4.233c-0.244 0.244-0.244 0.64-0 0.884s0.64 0.244 0.884 0l4.234-4.233c0.244-0.244 0.244-0.64 0-0.884s-0.64-0.244-0.884-0z"></path>
<path fill="#000" style="fill: var(--color5, #000)" d="M4.72 26.7l-4.234 4.233c-0.244 0.244-0.244 0.64-0 0.884s0.64 0.244 0.884 0l4.234-4.233c0.244-0.244 0.244-0.64 0-0.884s-0.64-0.244-0.884-0z"></path>
<path fill="#000" style="fill: var(--color5, #000)" d="M1.067 26.514l4.233-4.234c0.244-0.244 0.244-0.64-0-0.884s-0.64-0.244-0.884 0l-4.233 4.234c-0.244 0.244-0.244 0.64 0 0.884s0.64 0.244 0.884-0z"></path>
<path fill="#000" style="fill: var(--color5, #000)" d="M18.559 14.325l0.884-0.884c0.244-0.244 0.244-0.64 0-0.884s-0.64-0.244-0.884 0l-0.884 0.884c-0.244 0.244-0.244 0.64 0 0.884s0.64 0.244 0.884 0z"></path>
</symbol>
</defs>
</svg>
